<?xml version="1.0" encoding="UTF-8" standalone="no"?>
<!-- Created with Inkscape (http://www.inkscape.org/) -->

<svg
   xmlns:dc="http://purl.org/dc/elements/1.1/"
   xmlns:cc="http://creativecommons.org/ns#"
   xmlns:rdf="http://www.w3.org/1999/02/22-rdf-syntax-ns#"
   xmlns:svg="http://www.w3.org/2000/svg"
   xmlns="http://www.w3.org/2000/svg"
   xmlns:sodipodi="http://sodipodi.sourceforge.net/DTD/sodipodi-0.dtd"
   xmlns:inkscape="http://www.inkscape.org/namespaces/inkscape"
   width="744.09448819"
   height="1052.3622047"
   id="svg2"
   version="1.1"
   inkscape:version="0.48.2 r9819"
   sodipodi:docname="New document 1">
  <defs
     id="defs4" />
  <sodipodi:namedview
     id="base"
     pagecolor="#ffffff"
     bordercolor="#666666"
     borderopacity="1.0"
     inkscape:pageopacity="0.0"
     inkscape:pageshadow="2"
     inkscape:zoom="1.8271529"
     inkscape:cx="257.54186"
     inkscape:cy="699.26561"
     inkscape:document-units="px"
     inkscape:current-layer="layer2"
     showgrid="false"
     showguides="true"
     inkscape:guide-bbox="true"
     inkscape:snap-global="true"
     inkscape:window-width="1464"
     inkscape:window-height="1114"
     inkscape:window-x="948"
     inkscape:window-y="59"
     inkscape:window-maximized="0">
    <inkscape:grid
       type="xygrid"
       id="grid2985" />
    <sodipodi:guide
       orientation="0,1"
       position="200,930"
       id="guide2987" />
    <sodipodi:guide
       orientation="1,0"
       position="100,880"
       id="guide2989" />
    <sodipodi:guide
       orientation="1,0"
       position="300,840"
       id="guide2991" />
    <sodipodi:guide
       orientation="1,0"
       position="200,750"
       id="guide2993" />
    <sodipodi:guide
       orientation="0,1"
       position="220,630"
       id="guide2995" />
    <sodipodi:guide
       orientation="1,0"
       position="70,580"
       id="guide2997" />
    <sodipodi:guide
       orientation="1,0"
       position="330,560"
       id="guide2999" />
    <sodipodi:guide
       orientation="0,1"
       position="310,460"
       id="guide3001" />
    <sodipodi:guide
       orientation="0,1"
       position="160,900"
       id="guide3011" />
    <sodipodi:guide
       orientation="0,1"
       position="270,800"
       id="guide3013" />
  </sodipodi:namedview>
  <metadata
     id="metadata7">
    <rdf:RDF>
      <cc:Work
         rdf:about="">
        <dc:format>image/svg+xml</dc:format>
        <dc:type
           rdf:resource="http://purl.org/dc/dcmitype/StillImage" />
        <dc:title></dc:title>
      </cc:Work>
    </rdf:RDF>
  </metadata>
  <g
     inkscape:groupmode="layer"
     id="layer2"
     inkscape:label="Vase"
     style="display:inline">
    <path
       style="fill:none;stroke:#000000;stroke-width:1px;stroke-linecap:butt;stroke-linejoin:miter;stroke-opacity:1"
       d="m 70,422.36218 260,0 5,5 0,5 0,5 -5,5 -10,0 -20,150 -200,0 -20,-150 -10,0 -5,-5 0,-5 0,-5 z"
       id="path3006"
       inkscape:connector-curvature="0"
       sodipodi:nodetypes="ccccccccccccccc" />
    <path
       style="fill:none;stroke:#000000;stroke-width:1px;stroke-linecap:butt;stroke-linejoin:miter;stroke-opacity:1"
       d="m 80,442.36218 240,0 0,0"
       id="path3008"
       inkscape:connector-curvature="0" />
  </g>
  <g
     inkscape:label="Body"
     inkscape:groupmode="layer"
     id="layer1"
     style="display:inline">
    <path
       style="fill:none;stroke:#000000;stroke-width:1px;stroke-linecap:butt;stroke-linejoin:miter;stroke-opacity:1"
       d="m 100,422.36218 20,-270 c 0,0 0,-30 80,-30 80,0 80,30 80,30 l 20,270 z"
       id="path3003"
       inkscape:connector-curvature="0" />
  </g>
  <g
     inkscape:groupmode="layer"
     id="layer3"
     inkscape:label="Eye">
    <path
       sodipodi:type="arc"
       style="fill:none;fill-opacity:1;stroke:#000000;stroke-width:1;stroke-miterlimit:4;stroke-opacity:1;stroke-dasharray:none"
       id="path3015"
       sodipodi:cx="160"
       sodipodi:cy="152.36218"
       sodipodi:rx="50"
       sodipodi:ry="50"
       d="m 210,152.36218 a 50,50 0 1 1 -100,0 50,50 0 1 1 100,0 z"
       transform="translate(40,50)" />
    <path
       sodipodi:type="arc"
       style="fill:none;fill-opacity:1;stroke:#000000;stroke-width:1;stroke-miterlimit:4;stroke-opacity:1;stroke-dasharray:none;stroke-linejoin:round"
       id="path3017"
       sodipodi:cx="190"
       sodipodi:cy="192.36218"
       sodipodi:rx="10"
       sodipodi:ry="10"
       d="m 200,192.36218 a 10,10 0 1 1 -20,0 10,10 0 1 1 20,0 z"
       transform="translate(10,10)" />
  </g>
  <g
     inkscape:groupmode="layer"
     id="layer4"
     inkscape:label="Mouth">
    <rect
       style="fill:none;stroke:#000000;stroke-width:1;stroke-linejoin:round;stroke-miterlimit:4;stroke-opacity:1;stroke-dasharray:none"
       id="rect3788"
       width="100"
       height="40"
       x="150"
       y="272.36218"
       rx="5"
       ry="5" />
  </g>
  <g
     inkscape:groupmode="layer"
     id="layer5"
     inkscape:label="Arms">
    <path
       style="fill:none;stroke:#000000;stroke-width:1px;stroke-linecap:butt;stroke-linejoin:miter;stroke-opacity:1"
       d="m 290,292.36218 20,0 c 0,0 10,0 10,-10 0,-10 0,-20 0,-30 0,-10 0,-30 20,-30 20,0 20,20 20,30 0,10 0,33.33333 0,50 0,20 -10,30 -30,30 -10,0 -36.71051,0 -36.71051,0"
       id="path3791"
       inkscape:connector-curvature="0"
       sodipodi:nodetypes="ccssccssc" />
    <path
       sodipodi:nodetypes="ccssccssc"
       inkscape:connector-curvature="0"
       id="path3815"
       d="m 112.90099,251.47026 -20.000002,0 c 0,0 -10,0 -10,-10 0,-10 0,-20 0,-30 0,-10 0,-30 -20.000003,-30 -20,0 -20,20 -20,30 0,10 0,33.33333 0,50 0,20 10,30 30.000003,30 10,0 36.710512,0 36.710512,0"
       style="fill:none;stroke:#000000;stroke-width:1px;stroke-linecap:butt;stroke-linejoin:miter;stroke-opacity:1" />
  </g>
</svg>
