999
Inkscape export via OpenSCAD DXF Export
  0
SECTION
  2
HEADER
  9
$ACADVER
  1
AC1014
  9
$HANDSEED
  5
FFFF
  9
$MEASUREMENT
 70
     1
  0
ENDSEC
  0
SECTION
  2
TABLES
  0
TABLE
  2
VPORT
  5
8
330
0
100
AcDbSymbolTable
 70
     4
  0
VPORT
  5
2E
330
8
100
AcDbSymbolTableRecord
100
AcDbViewportTableRecord
  2
*ACTIVE
 70
     0
 10
0.0
 20
0.0
 11
1.0
 21
1.0
 12
210.0
 22
148.5
 13
0.0
 23
0.0
 14
10.0
 24
10.0
 15
10.0
 25
10.0
 16
0.0
 26
0.0
 36
1.0
 17
0.0
 27
0.0
 37
0.0
 40
341.0
 41
1.24
 42
50.0
 43
0.0
 44
0.0
 50
0.0
 51
0.0
 71
     0
 72
   100
 73
     1
 74
     3
 75
     0
 76
     0
 77
     0
 78
     0
  0
ENDTAB
  0
TABLE
  2
LTYPE
  5
5
330
0
100
AcDbSymbolTable
 70
     1
  0
LTYPE
  5
14
330
5
100
AcDbSymbolTableRecord
100
AcDbLinetypeTableRecord
  2
BYBLOCK
 70
     0
  3

 72
    65
 73
     0
 40
0.0
  0
LTYPE
  5
15
330
5
100
AcDbSymbolTableRecord
100
AcDbLinetypeTableRecord
  2
BYLAYER
 70
     0
  3

 72
    65
 73
     0
 40
0.0
  0
LTYPE
  5
16
330
5
100
AcDbSymbolTableRecord
100
AcDbLinetypeTableRecord
  2
CONTINUOUS
 70
     0
  3
Solid line
 72
    65
 73
     0
 40
0.0
  0
ENDTAB
  0
TABLE
0
TABLE
2
LAYER
5
2
330
0
100
AcDbSymbolTable
70
1
0
LAYER
5
10
330
2
100
AcDbSymbolTableRecord
100
AcDbLayerTableRecord
2
Layer_1
70
0
62
7
6
CONTINUOUS
0
ENDTAB
0
ENDSEC
  0
ENDTAB
  0
TABLE
  2
STYLE
  5
3
330
0
100
AcDbSymbolTable
 70
     1
  0
STYLE
  5
11
330
3
100
AcDbSymbolTableRecord
100
AcDbTextStyleTableRecord
  2
STANDARD
 70
     0
 40
0.0
 41
1.0
 50
0.0
 71
     0
 42
2.5
  3
txt
  4

  0
ENDTAB
  0
TABLE
  2
VIEW
  5
6
330
0
100
AcDbSymbolTable
 70
     0
  0
ENDTAB
  0
TABLE
  2
UCS
  5
7
330
0
100
AcDbSymbolTable
 70
     0
  0
ENDTAB
  0
TABLE
  2
APPID
  5
9
330
0
100
AcDbSymbolTable
 70
     2
  0
APPID
  5
12
330
9
100
AcDbSymbolTableRecord
100
AcDbRegAppTableRecord
  2
ACAD
 70
     0
  0
ENDTAB
  0
TABLE
  2
DIMSTYLE
  5
A
330
0
100
AcDbSymbolTable
 70
     1
  0
DIMSTYLE
105
27
330
A
100
AcDbSymbolTableRecord
100
AcDbDimStyleTableRecord
  2
ISO-25
 70
     0
  3

  4

  5

  6

  7

 40
1.0
 41
2.5
 42
0.625
 43
3.75
 44
1.25
 45
0.0
 46
0.0
 47
0.0
 48
0.0
140
2.5
141
2.5
142
0.0
143
0.03937007874016
144
1.0
145
0.0
146
1.0
147
0.625
 71
     0
 72
     0
 73
     0
 74
     0
 75
     0
 76
     0
 77
     1
 78
     8
170
     0
171
     3
172
     1
173
     0
174
     0
175
     0
176
     0
177
     0
178
     0
270
     2
271
     2
272
     2
273
     2
274
     3
340
11
275
     0
280
     0
281
     0
282
     0
283
     0
284
     8
285
     0
286
     0
287
     3
288
     0
  0
ENDTAB
  0
TABLE
  2
BLOCK_RECORD
  5
1
330
0
100
AcDbSymbolTable
 70
     1
  0
BLOCK_RECORD
  5
1F
330
1
100
AcDbSymbolTableRecord
100
AcDbBlockTableRecord
  2
*MODEL_SPACE
  0
BLOCK_RECORD
  5
1B
330
1
100
AcDbSymbolTableRecord
100
AcDbBlockTableRecord
  2
*PAPER_SPACE
  0
ENDTAB
  0
ENDSEC
  0
SECTION
  2
BLOCKS
  0
BLOCK
  5
20
330
1F
100
AcDbEntity
  8
0
100
AcDbBlockBegin
  2
*MODEL_SPACE
 70
     0
 10
0.0
 20
0.0
 30
0.0
  3
*MODEL_SPACE
  1

  0
ENDBLK
  5
21
330
1F
100
AcDbEntity
  8
0
100
AcDbBlockEnd
  0
BLOCK
  5
1C
330
1B
100
AcDbEntity
 67
     1
  8
0
100
AcDbBlockBegin
  2
*PAPER_SPACE
  1

  0
ENDBLK
  5
1D
330
1B
100
AcDbEntity
 67
     1
  8
0
100
AcDbBlockEnd
  0
ENDSEC
  0
SECTION
  2
ENTITIES
0
DIMENSION
5
83
100
AcDbEntity
62
256
370
-1
6
ByLayer
1
total_width
3
Standard
70
0
71
5
72
1
41
1.0
100
AcDbAlignedDimension
13
0.092238
23
0.000000
33
0.0
14
9.926889
24
0.000000
34
0.0
50
0.000000
100
AcDbRotatedDimension
0
DIMENSION
5
83
100
AcDbEntity
62
256
370
-1
6
ByLayer
1
total_height
3
Standard
70
0
71
5
72
1
41
1.0
100
AcDbAlignedDimension
13
0.000000
23
18.275312
33
0.0
14
0.000000
24
28.095133
34
0.0
50
90.000000
100
AcDbRotatedDimension
0
DIMENSION
8
Layer_1
5
83
100
AcDbEntity
62
256
370
-1
6
ByLayer
1
Layer_1_width
3
Standard
70
0
71
5
72
1
41
1.0
100
AcDbAlignedDimension
13
0.092238
23
0.000000
33
0.0
14
9.926889
24
0.000000
34
0.0
50
0.000000
100
AcDbRotatedDimension
0
DIMENSION
8
Layer_1
5
83
100
AcDbEntity
62
256
370
-1
6
ByLayer
1
Layer_1_height
3
Standard
70
0
71
5
72
1
41
1.0
100
AcDbAlignedDimension
13
0.000000
23
18.275312
33
0.0
14
0.000000
24
28.095133
34
0.0
50
90.000000
100
AcDbRotatedDimension
0
LWPOLYLINE
100
AcDbPolyline
8
Layer_1
90
35
70
0
10
8.897798
20
22.537825
30
0.0
10
8.446972
20
22.282766
30
0.0
10
8.169680
20
21.963946
30
0.0
10
7.780156
20
21.278479
30
0.0
10
7.180744
20
20.762235
30
0.0
10
6.475984
20
20.575845
30
0.0
10
6.037550
20
20.726701
30
0.0
10
5.755635
20
21.090865
30
0.0
10
5.648251
20
21.533537
30
0.0
10
5.681377
20
21.983566
30
0.0
10
6.037476
20
22.889755
30
0.0
10
6.721110
20
23.582585
30
0.0
10
7.484190
20
23.822924
30
0.0
10
8.046296
20
23.577675
30
0.0
10
8.128224
20
23.562974
30
0.0
10
8.852457
20
23.970073
30
0.0
10
8.898634
20
24.063273
30
0.0
10
8.896433
20
25.299322
30
0.0
10
8.959573
20
25.402332
30
0.0
10
9.342292
20
25.623043
30
0.0
10
9.776697
20
24.457969
30
0.0
10
9.926889
20
23.295650
30
0.0
10
9.781806
20
22.137009
30
0.0
10
9.330391
20
20.982965
30
0.0
10
8.478163
20
19.823710
30
0.0
10
7.422905
20
19.022211
30
0.0
10
6.276948
20
18.553635
30
0.0
10
5.152627
20
18.393151
30
0.0
10
5.152910
20
18.653113
30
0.0
10
5.166976
20
18.883642
30
0.0
10
5.356688
20
19.006263
30
0.0
10
8.837804
20
21.007494
30
0.0
10
8.899371
20
21.110504
30
0.0
10
8.897762
20
22.449545
30
0.0
10
8.897762
20
22.537845
30
0.0
0
LWPOLYLINE
100
AcDbPolyline
8
Layer_1
90
40
70
0
10
0.638749
20
25.490603
30
0.0
10
1.029927
20
25.264973
30
0.0
10
1.056629
20
25.206072
30
0.0
10
1.057611
20
25.019682
30
0.0
10
1.056181
20
21.017255
30
0.0
10
1.134221
20
20.879914
30
0.0
10
2.157086
20
20.291323
30
0.0
10
2.250467
20
20.237324
30
0.0
10
2.256867
20
20.310923
30
0.0
10
2.255436
20
21.090804
30
0.0
10
2.224706
20
21.179104
30
0.0
10
1.893878
20
21.722327
30
0.0
10
1.712204
20
22.331766
30
0.0
10
1.692718
20
22.770766
30
0.0
10
1.806520
20
23.195045
30
0.0
10
2.203292
20
23.608896
30
0.0
10
2.776573
20
23.665904
30
0.0
10
3.219305
20
23.498516
30
0.0
10
3.595172
20
23.209755
30
0.0
10
4.068144
20
22.599699
30
0.0
10
4.329238
20
21.875606
30
0.0
10
4.272394
20
20.997625
30
0.0
10
3.849547
20
20.531655
30
0.0
10
3.796442
20
20.443355
30
0.0
10
3.796393
20
19.403503
30
0.0
10
3.847934
20
19.320104
30
0.0
10
4.756716
20
18.795274
30
0.0
10
4.820938
20
18.687363
30
0.0
10
4.820741
20
18.344012
30
0.0
10
4.747916
20
18.275312
30
0.0
10
3.837930
20
18.405934
30
0.0
10
2.967331
20
18.702043
30
0.0
10
2.168986
20
19.149618
30
0.0
10
1.468412
20
19.736994
30
0.0
10
0.613966
20
20.909275
30
0.0
10
0.109049
20
22.439625
30
0.0
10
0.092238
20
23.814841
30
0.0
10
0.463445
20
25.142243
30
0.0
10
0.616032
20
25.461064
30
0.0
10
0.638750
20
25.490464
30
0.0
0
LWPOLYLINE
100
AcDbPolyline
8
Layer_1
90
36
70
0
10
0.787648
20
25.789803
30
0.0
10
1.631350
20
26.788723
30
0.0
10
2.618748
20
27.516342
30
0.0
10
3.755640
20
27.957024
30
0.0
10
5.047827
20
28.095133
30
0.0
10
6.302663
20
27.932204
30
0.0
10
7.405432
20
27.483244
30
0.0
10
8.361878
20
26.763897
30
0.0
10
9.177744
20
25.789803
30
0.0
10
8.750571
20
25.544553
30
0.0
10
8.680644
20
25.564154
30
0.0
10
6.834805
20
26.623623
30
0.0
10
5.035286
20
27.658562
30
0.0
10
4.939454
20
27.663563
30
0.0
10
3.719301
20
26.962173
30
0.0
10
3.687089
20
26.937575
30
0.0
10
3.883047
20
26.824765
30
0.0
10
4.190531
20
26.648185
30
0.0
10
4.326545
20
26.628587
30
0.0
10
5.082367
20
26.681329
30
0.0
10
5.818679
20
26.505967
30
0.0
10
6.384965
20
26.113567
30
0.0
10
6.625579
20
25.477156
30
0.0
10
6.319961
20
24.862817
30
0.0
10
5.885633
20
24.564837
30
0.0
10
5.384330
20
24.406658
30
0.0
10
4.507977
20
24.375981
30
0.0
10
3.679716
20
24.661708
30
0.0
10
3.202534
20
25.157107
30
0.0
10
3.139244
20
25.716267
30
0.0
10
3.103874
20
25.804567
30
0.0
10
2.445929
20
26.182247
30
0.0
10
2.356973
20
26.177246
30
0.0
10
1.295801
20
25.564126
30
0.0
10
1.177292
20
25.564126
30
0.0
10
0.787639
20
25.789756
30
0.0
  0
ENDSEC
  0
SECTION
  2
OBJECTS
  0
DICTIONARY
  5
C
330
0
100
AcDbDictionary
  3
ACAD_GROUP
350
D
  3
ACAD_MLINESTYLE
350
17
  0
DICTIONARY
  5
D
330
C
100
AcDbDictionary
  0
DICTIONARY
  5
1A
330
C
100
AcDbDictionary
  0
DICTIONARY
  5
17
330
C
100
AcDbDictionary
  3
STANDARD
350
18
  0
DICTIONARY
  5
19
330
C
100
AcDbDictionary
  0
ENDSEC
  0
EOF
