<?xml version="1.0" encoding="UTF-8" standalone="no"?>
<!-- Created with Inkscape (http://www.inkscape.org/) -->

<svg
   xmlns:dc="http://purl.org/dc/elements/1.1/"
   xmlns:cc="http://creativecommons.org/ns#"
   xmlns:rdf="http://www.w3.org/1999/02/22-rdf-syntax-ns#"
   xmlns:svg="http://www.w3.org/2000/svg"
   xmlns="http://www.w3.org/2000/svg"
   version="1.1"
   width="100"
   height="100"
   id="svg2">
  <defs
     id="defs4">
    <clipPath
       id="clipPath3053">
      <path
         d="m 0,850.394 1417.323,0 L 1417.323,0 0,0 0,850.394 z"
         id="path3055" />
    </clipPath>
  </defs>
  <metadata
     id="metadata7">
    <rdf:RDF>
      <cc:Work
         rdf:about="">
        <dc:format>image/svg+xml</dc:format>
        <dc:type
           rdf:resource="http://purl.org/dc/dcmitype/StillImage" />
        <dc:title></dc:title>
      </cc:Work>
    </rdf:RDF>
  </metadata>
  <g
     transform="translate(0,-952.36218)"
     id="layer1">
    <g
       transform="matrix(0.13241427,0,0,-0.13241427,-43.284276,1058.0615)"
       id="g3047">
      <g
         id="g3049">
        <g
           clip-path="url(#clipPath3053)"
           id="g3051">
          <g
             transform="translate(630.1045,507.8857)"
             id="g3057">
            <path
               d="m 0,0 c 9.83,9.318 17.601,19.694 24.186,32.5 5.185,10.085 9.318,19.73 6.298,33.76 -0.673,3.128 -2.869,8.238 -5.794,8.062 C 9.389,73.402 -0.376,52.052 -9.852,27.98 -19.327,3.908 -23.975,-7.291 -25.446,-21.415 -16.401,-15.652 -8.085,-7.664 0,0 m 83.989,31.726 c -8.865,-33.299 -7.926,-61.422 9.741,-55.808 5.155,1.638 14.86,6.604 23.925,19.799 14.093,20.513 15.049,22.722 20.659,37.539 5.611,14.816 8.967,31.844 8.818,36.783 -0.148,4.9 -0.562,37.449 -9.646,36.483 C 111.067,103.716 92.854,65.026 83.989,31.726 m 252.456,57.749 c 1.797,1.324 6.881,12.129 8.818,15.117 5.635,8.689 12.178,17.03 18.644,25.446 5.749,7.481 21.249,24.533 31.241,27.461 2.08,0.61 7.081,1.461 9.825,1.26 6.435,-0.473 13.87,-8.049 15.847,-10.38 2.957,-3.486 4.833,-8.34 3.805,-15.066 -2.408,-15.738 -7.206,-31.957 -11.086,-46.357 -0.322,-1.195 -10.101,-42.788 -13.101,-56.435 -0.753,-3.421 -6.442,-31.354 -6.802,-43.081 -0.431,-14.04 3.954,-16.855 6.046,-17.384 3.183,-0.805 14.627,4.338 18.392,7.054 2.864,2.067 5.359,4.46 8.113,6.899 2.89,2.558 5.428,6.194 8.767,6.706 -3.072,-8.441 -16.611,-19.255 -21.565,-22.722 -0.682,-0.479 -5.613,-4.128 -18.493,-7.007 -10.192,-2.277 -19.16,4.461 -20.407,5.039 -1.974,0.914 -3.548,2.349 -5.543,3.78 -4.843,3.471 -5.191,12.972 -5.291,14.863 -0.047,0.873 1.613,17.618 1.763,18.645 2.649,18.011 20.357,92.188 28.973,122.946 1.222,4.358 7.948,21.747 -1.511,19.399 -7.1,-1.762 -18.151,-15.91 -20.911,-19.148 -5.585,-6.549 -25.45,-32.618 -31.745,-48.12 -2.18,-5.369 -4.381,-10.448 -6.55,-15.619 -2.256,-5.379 -10.069,-35.198 -12.597,-44.343 -1.018,-3.683 -4.884,-17.502 -5.29,-20.407 -0.627,-4.482 -0.701,-8.995 -5.794,-8.818 -2.296,0.08 -9.1,1.245 -10.677,2.029 -0.979,0.487 -4.282,2.254 -5.012,2.984 -1.271,1.271 -1.441,4.488 -1.539,7.094 -0.07,1.881 0.711,4.17 1.008,6.551 1.885,15.118 5.967,31.904 7.307,47.113 -4.084,-9.906 -18.834,-34.807 -23.401,-41.482 -14.488,-21.175 -29.358,-26.104 -36.813,-27.551 -7.166,-1.389 -13.772,-1.425 -19.651,1.26 -11.121,5.079 -16.681,15.974 -21.164,27.714 -2.877,-5.479 -18.356,-41.268 -36.04,-46.407 -1.198,-0.349 -6.179,-0.573 -8.313,-0.505 -6.218,0.203 -13.012,2.797 -19.651,15.117 -2.673,4.96 -1.809,11.528 -1.764,18.14 -3.072,-6.684 -5.784,-11.755 -10.172,-19.068 -1.877,-3.129 -6.99,-10.448 -11.998,-16.204 -5.009,-5.756 -12.534,-12.406 -20.659,-14.613 -8.125,-2.205 -15.253,-1.069 -22.171,2.269 -9.896,4.772 -13.971,13.193 -15.611,33.844 -2.323,-7.112 -7.628,-19.871 -14.116,-29.348 -4.198,-6.131 -7.43,-12.63 -12.631,-18.945 -7.054,-8.566 -14.142,-15.743 -23.651,-22.083 -3.012,-2.008 -18.09,-10.642 -32.525,-7.188 -8.704,2.082 -41.044,13.04 -28.522,81.279 5.471,29.82 29.347,78.384 60.552,93.614 8.204,4.005 22.878,1.234 28.604,-3.343 6.528,-5.216 10.865,-20.677 7.43,-31.948 C 29.732,19.73 14.294,3.739 7.558,-4.283 c -15.26,-18.173 -31.889,-24.329 -33.012,-26.432 -0.751,-1.406 -5.048,-31.309 9.287,-39.749 8.446,-4.972 17.401,1.011 23.473,5.464 15.458,11.334 22.804,23.789 29.378,35.758 9.188,16.73 13.085,24.85 14.942,33.394 0,4.459 -1.568,15.439 4.376,37.729 5.711,21.42 16.471,42.104 30.958,56.221 14.893,14.511 31.671,22.079 40.269,20.814 1.081,-0.16 11.295,-3.291 14.864,-6.047 8.908,-6.877 6.112,-11.505 9.322,-18.14 1.433,3.094 1.449,6.424 2.519,10.078 0.769,2.621 1.989,7.518 4.031,8.314 0.666,0.259 3.818,0.507 4.535,0.504 0.841,-0.004 3.808,-0.493 5.292,-0.756 4.704,-0.837 13.719,-5.59 15.368,-9.826 1.143,-2.939 0.94,-8.087 0.504,-12.597 -0.482,-4.973 -2.172,-10.08 -3.276,-15.368 C 177.373,60.642 168.477,19.567 167.792,14.36 167.08,8.956 165.068,1.979 166.28,-2.771 c 0.618,-2.426 1.465,-5.833 4.786,-5.543 3.322,0.29 9.658,6.302 19.916,25.676 4.459,8.42 7.1,15.61 7.307,16.7 0.497,2.63 -0.002,5.73 0.252,9.07 0.657,8.666 1.203,43.128 19.034,70.618 5.888,9.078 26.376,33.434 51.005,30.158 2.068,-0.276 12.937,-3.267 15.619,-4.787 2.96,-1.677 7.487,-6.281 8.819,-8.818 2.771,-5.277 2.766,-15.568 2.52,-21.667 -0.165,-4.082 -2.728,-15.929 -3.276,-17.888 -1.111,-3.969 -2.21,-5.333 -3.78,-8.817 -1.506,-3.345 -2.094,-4.806 -6.046,-3.779 -1.036,0.268 -5.812,1.108 -6.551,1.511 -3.066,1.679 -0.412,8.639 0.757,12.345 2.596,8.239 6.697,22.358 6.55,30.737 -0.047,2.662 0.763,8.751 -6.292,8.617 -22.793,-0.429 -40.707,-56.197 -42.332,-64.799 -0.576,-3.053 -18.247,-59.771 7.809,-62.23 6.949,-0.655 14.086,4.284 17.888,7.306 8.838,7.025 12.802,9.951 24.101,27.486 11.298,17.534 21.911,43.099 22.257,44.569 0.716,3.06 12.458,48.848 17.887,68.528 1.574,5.707 2.766,11.518 4.534,17.132 4.223,13.398 8.521,27.565 13.101,41.065 0.94,2.77 16.262,51.641 31.242,73.063 1.318,1.886 8.074,-2.048 8.566,-2.267 1.186,-0.531 4.037,-2.677 5.039,-4.031 0.617,-0.835 3.939,-4.023 4.861,-7.413 0.749,-2.757 2.055,-5.353 1.531,-9.48 -0.224,-1.767 -1.647,-3.741 -2.519,-5.795 -0.833,-1.96 -7.803,-16.43 -9.826,-21.919 -14.204,-38.543 -40.468,-126.589 -42.326,-132.016 -1.21,-3.535 -2.42,-7.182 -2.268,-11.086"
               id="path3059"
               style="fill:#231f20;fill-opacity:1;fill-rule:evenodd;stroke:none" />
          </g>
          <g
             transform="translate(486.874,492.0845)"
             id="g3061">
            <path
               d="m 0,0 c 19.983,-2.158 35.122,-7.952 48.462,-16.762 26.253,-17.337 26.504,-36.471 26,-49 -1.077,-26.787 -16.428,-45.512 -60,-72 -7.884,-4.794 -49.146,-26.361 -57.64,-30.698 -46.21,-23.597 -69.418,-44.771 -73.699,-51.831 -2.066,-3.404 -11.266,-12.857 -13.976,-12.917 -2.103,-0.047 -3.219,1.34 -4.787,2.519 -1.415,1.064 -3.201,1.852 -4.283,3.023 -0.938,1.018 -1.111,2.875 -2.267,4.283 -1.232,1.499 -2.444,2.187 -2.771,3.527 -0.289,1.181 0.32,2.696 0.252,4.535 -0.139,3.688 -0.669,17.918 0.385,21.256 2.06,6.527 6.321,11.363 29.688,30.142 23.368,18.778 92.845,51.806 124.785,70.798 9.163,5.448 27.677,16.963 36.245,37.375 8.646,20.599 -15.108,40.37 -45.819,44.085 -6.032,0.729 -12.03,0.969 -17.585,-0.496 -4.43,-1.167 -9.395,-9.263 -14.731,-3.543 -0.377,0.405 -0.824,1.064 -1.259,1.512 -0.597,0.613 -1.322,0.962 -1.512,1.259 -0.897,1.408 -5.78,16.867 -2.821,25.902 0.766,2.34 5.364,6.411 7.795,8.769 8.226,7.976 16.584,15.056 23.934,22.926 10.279,11.004 20.842,21.839 30.072,33.164 33.922,41.62 46.188,71.222 46.311,95.499 0.183,36.411 -26.654,64.929 -83.793,57.683 -45.524,-5.772 -64.524,-22.772 -82.755,-44.044 -16.939,-19.763 -26.188,-46.659 -20.959,-80.356 5.23,-33.697 18.286,-42.219 26.946,-56.694 0.654,-1.092 2.566,-3.805 2.52,-4.787 -0.219,-4.676 -3.088,-9.718 -3.276,-10.33 -0.879,-2.865 -11.198,-14.181 -13.333,-14.561 -2.719,-0.484 -7.027,2.062 -8.818,3.78 -1.7,1.629 -17.394,13.484 -23.917,43.295 -9.645,44.071 2.182,69.227 3.602,74.912 4.306,17.238 37.6,89.201 118.918,98.053 57.515,6.261 97.783,-13.164 108.548,-51.04 C 104.967,152.28 93.287,123.801 76.812,93.985 73.197,87.442 49.487,52.817 40.289,42.087 35.714,36.75 16.884,16.347 12.071,11.351 9.684,8.872 1.983,2.695 0,0"
               id="path3063"
               style="fill:#231f20;fill-opacity:1;fill-rule:evenodd;stroke:none" />
          </g>
          <g
             transform="translate(469.5264,659.8804)"
             id="g3065">
            <path
               d="m 0,0 c 1.213,-0.735 5.482,-2.407 6.298,-3.527 0.396,-0.543 4.219,-3.51 4.989,-4.56 3.06,-4.173 6.674,-8.736 8.08,-12.66 1.311,-3.66 0.505,-4.864 -1.008,-7.558 -2.789,-4.966 -6.302,-9.927 -8.818,-15.368 -1.892,-4.092 -15.147,-30.776 -29.729,-80.621 -8.728,-29.832 -22.502,-102.097 -27.954,-139.996 -0.847,-5.892 -1.836,-11.48 -2.771,-16.377 -0.363,-1.902 0.417,-2.494 -0.504,-3.274 -2.611,-2.211 -8.888,1.691 -11.085,2.772 -1.798,0.882 -10.548,6.277 -13.068,5.881 -1.538,2.634 -4.607,3.438 -4.787,8.063 -0.109,2.787 0.831,6.015 1.007,9.069 1.742,30.123 10.804,70.387 17.877,98.174 4.708,18.501 5.992,24.539 15.62,56.939 5.167,17.391 12.067,41.69 28.163,78.985 3.549,8.223 8.995,19.206 14.667,23.555 C -2.404,-0.029 -1.711,0.125 0,0"
               id="path3067"
               style="fill:#231f20;fill-opacity:1;fill-rule:evenodd;stroke:none" />
          </g>
          <g
             transform="translate(756.5483,242.1602)"
             id="g3069">
            <path
               d="m 0,0 c -0.586,-4.123 -5.201,-58.697 18.251,-49.488 4.449,1.746 22.778,29.685 23.178,30.231 0.563,0.77 4.277,9.938 5.795,14.11 2.58,7.094 6.823,42.534 7.054,45.096 2.356,26.097 2.044,53.789 -6.298,51.649 C 22.251,84.993 3.765,26.51 0,0 M 180.5,109.232 C 175.319,103.124 157.044,71.881 148,51.287 138.956,30.693 137.951,1.637 137.419,-6.911 c -0.239,-3.821 -0.319,-13.661 3.526,-15.62 8.978,-3.831 13.45,-3.391 23.935,6.046 15.683,14.116 19.215,22.057 28.217,48.373 9.002,26.315 14.955,92.792 1.007,88.682 -0.227,-0.067 -0.462,-0.252 -0.503,-0.252 -3.005,-0.019 -11.343,-9.012 -13.101,-11.086 M 145.48,70.686 c 1.136,2.84 22.317,37.827 30.613,48.196 10.402,13.002 21.809,20.875 27.74,19.566 7.316,-1.614 11.468,-3.29 15.85,-8.173 8.669,-9.659 13.666,-25.016 9.908,-70.586 -2.48,-30.04 -16.192,-57.953 -30.761,-78.565 -1.237,-1.751 -2.367,-3.425 -3.78,-5.039 -1.303,-1.49 -18.202,-19.317 -50.577,-19.023 -13.342,0.122 -21.596,4.924 -23.431,6.298 -9.4,7.038 -7.088,24.844 -7.559,40.562 -1.837,-1.326 -2.457,-3.645 -3.527,-5.542 -5.132,-9.101 -10.412,-19.361 -16.627,-27.966 -1.289,-1.784 -6.097,-8.806 -7.307,-10.581 -2.976,-4.365 -6.273,-8.376 -10.078,-11.589 -0.714,-0.603 -6.596,-4.713 -17.131,-1.26 -1.15,0.377 -4.669,3.277 -5.542,4.283 -4.61,5.312 -5.854,17.42 -5.291,22.674 -2.904,-7.129 -22.343,-38.716 -32.249,-46.861 -3.716,-3.055 -6.794,-4.507 -12.848,-4.534 -3.437,-0.016 -7.203,0.896 -10.077,1.764 -18.564,5.6 -25.46,27.444 -26.202,29.728 -6.299,19.378 -3.026,46.784 1.763,65.757 3.776,14.956 14.544,47.572 34.516,70.039 6.186,6.96 14.8,13.457 23.179,16.375 2.496,0.871 12.441,2.645 14.36,2.771 3.085,0.204 8.083,-1.387 10.077,-2.518 6.356,-3.608 8.338,-8.221 11.841,-14.612 0.546,2.77 5.535,7.357 6.803,7.557 2.429,0.385 9.658,-3.961 10.834,-4.535 C 81.851,93.958 90.23,86.68 90.81,85.047 91.913,81.934 89.116,62.195 88.038,58.089 87.001,54.137 80.869,19.393 79.221,6.945 c -0.82,-6.178 -1.449,-12.541 -2.016,-19.65 -0.459,-5.751 -1.994,-13.772 3.527,-14.613 3.958,-0.604 8.259,4.17 9.826,6.55 1.859,2.828 3.491,6.007 5.543,9.071 3.824,5.711 7.221,12.135 10.833,18.39 1.809,3.135 3.896,6.507 4.787,9.575 0.403,1.392 3.375,10.494 3.779,13.604 0.179,1.378 -0.11,2.72 0,4.283 3.038,43.353 9.339,91.268 31.744,171.067 1.029,3.67 6.292,19.749 8.062,24.69 0.465,1.298 3.767,7.863 5.039,8.062 2.549,0.398 8.543,-2.133 9.574,-2.52 1.447,-0.541 6.399,-2.81 8.142,-4.432 2.719,-2.529 5.321,-5.138 5.461,-9.424 0.051,-1.518 -1.387,-3.255 -1.763,-4.786 -1.431,-5.842 -28.315,-96.59 -36.279,-146.126"
               id="path3071"
               style="fill:#231f20;fill-opacity:1;fill-rule:evenodd;stroke:none" />
          </g>
          <g
             transform="translate(566.6147,95.5439)"
             id="g3073">
            <path
               d="m 0,0 c 4.787,3.472 39.807,37.073 53.956,48.712 14.537,11.956 49.509,36.762 66.552,45.434 2.637,1.343 15.241,5.935 21.88,1.521 6.638,-4.416 5.089,-5.837 5.376,-8.459 1.674,-15.302 -3.41,-29.96 -4.981,-34.762 -1.641,-5.017 -4.467,-11.154 -6.249,-13.795 -1.783,-2.64 -2.362,2.65 -3.891,3.923 -1.315,1.094 -0.183,4.042 -4.414,3.438 C 108.993,43.266 87.003,31.427 51.15,6.208 15.289,-19.019 -3.047,-37.775 -3.676,-38.69 c -0.492,-0.719 -4.86,-8.334 -7.379,-8.809 -3.549,-0.669 -10.916,3.928 -12.648,5.754 -3.147,3.317 -7.779,10.342 -8.099,16.782 -2.975,59.941 12.639,151.734 19.105,184.685 2.405,12.257 16.25,72.359 17.711,78.168 2.941,11.691 12.667,42.002 14.598,47.052 2.187,5.723 6.56,13.192 9.009,16.03 0.94,1.09 2.68,1.305 5.039,0.836 1.831,-0.365 5.261,-1.267 5.987,-1.731 0.839,-0.536 7.766,-5.651 10.076,-7.173 1.097,-0.722 2.08,-2.105 3.164,-3.14 2.679,-2.56 7.19,-6.242 6.623,-11.724 C 59.105,274.135 35.116,213.747 20.739,138.68 6.362,63.613 8.005,47.444 0,0"
               id="path3075"
               style="fill:#231f20;fill-opacity:1;fill-rule:evenodd;stroke:none" />
          </g>
        </g>
      </g>
    </g>
  </g>
</svg>
